<svg width="975" height="891" viewBox="0 0 975 891" fill="none" xmlns="http://www.w3.org/2000/svg">
<path d="M974.307 487.741C974.307 487.741 963.603 481.789 936.42 476.994C963.289 -52.3154 368.504 -108.738 179 149.199C533.664 -116.8 844.223 157.259 803.92 466.247L770.107 458.186L842.652 605.963L974.307 487.741Z" fill="#732CA8"/>
<path d="M7.34087 384.208C7.34087 384.208 25.4982 386.993 52.6067 392.191C-31.7715 936.4 575.765 998.409 797.54 734.509C400.706 947.673 114.223 681.411 174.107 409.191L211.08 416.788L140.735 267.952L7.34087 384.208Z" fill="#732CA8"/>
<path d="M367.869 754.733C663.422 486.048 378.616 456.493 341 426.937C464.595 416.19 558.635 512.917 585.503 271.1C660.735 561.28 469.969 676.815 367.869 754.733Z" fill="#2D365B"/>
<circle cx="480.716" cy="357.08" r="53.737" fill="#2D365B"/>
<path d="M571.733 174.696L586.014 202.915L620.907 198.777L594.84 220.356L609.121 248.576L578.729 233.692L552.662 255.271L559.946 224.494L529.555 209.611L564.448 205.473L571.733 174.696Z" fill="#2D365B"/>
</svg>

